<svg width="19" height="21" viewBox="0 0 19 21" fill="none" xmlns="http://www.w3.org/2000/svg">
<path d="M10.5734 0.971837C10.2833 0.697561 9.89924 0.544739 9.5 0.544739C9.10077 0.544739 8.71667 0.697561 8.42657 0.971837L0.857814 8.12496C0.626066 8.34426 0.441535 8.60857 0.315526 8.9017C0.189517 9.19482 0.124685 9.51059 0.125001 9.82965V18.5328C0.125415 19.1541 0.372528 19.7498 0.812022 20.189C1.25152 20.6282 1.84742 20.875 2.46875 20.875H4.8125C5.4341 20.875 6.03025 20.628 6.46978 20.1885C6.90932 19.749 7.15625 19.1528 7.15625 18.5312V14.625C7.15625 14.4178 7.23856 14.219 7.38508 14.0725C7.53159 13.926 7.7303 13.8437 7.9375 13.8437H11.0625C11.2697 13.8437 11.4684 13.926 11.6149 14.0725C11.7614 14.219 11.8438 14.4178 11.8438 14.625V18.5312C11.8438 19.1528 12.0907 19.749 12.5302 20.1885C12.9698 20.628 13.5659 20.875 14.1875 20.875H16.5313C17.1529 20.875 17.749 20.628 18.1885 20.1885C18.6281 19.749 18.875 19.1528 18.875 18.5312V9.82809C18.8749 9.50917 18.8097 9.19364 18.6835 8.90079C18.5572 8.60794 18.3725 8.34395 18.1406 8.12496L10.5734 0.968712V0.971837Z" fill="white"/>
</svg>
